<svg width="512" height="512" viewBox="0 0 512 512" fill="none" xmlns="http://www.w3.org/2000/svg">
<g clip-path="url(#clip0_112_32)">
<path d="M492.465 159.154C481.694 164.347 476.612 176.765 474.166 187.801C468.277 214.364 474.677 241.989 470.871 268.928C465.422 307.501 446.872 343.669 418.174 370.254C408.169 379.522 396.718 386.368 385.742 394.307C400.633 370.279 422.508 343.484 424.578 314.102C425.287 304.038 424.986 287.903 414.467 282.756C400.809 302.895 385.615 321.092 368.135 338.057C352.244 353.479 333.162 365.12 317.168 380.516C284.567 411.898 256.661 465.746 273.232 512C337.885 507.638 398.479 478.921 442.791 431.639C487.102 384.358 511.835 322.032 512 257.232C511.999 223.573 505.361 190.245 492.465 159.154Z" fill="#AEC2D7"/>
<path d="M256 0C244.063 0.0174687 232.142 0.869809 220.324 2.55078C215.748 3.37973 211.196 4.33321 206.672 5.41016C199.51 6.65135 192.404 8.19702 185.373 10.043C180.132 11.7314 174.946 13.5885 169.824 15.6113C163.732 17.6261 157.718 19.8692 151.795 22.3359C146.519 24.8651 141.332 27.5744 136.242 30.459C130.819 33.1739 125.494 36.0807 120.277 39.1738C115.218 42.5117 110.279 46.0283 105.469 49.7168C100.666 53.0616 95.9786 56.5702 91.416 60.2363C86.7623 64.3165 82.258 68.5641 77.9121 72.9707C73.7306 76.8807 69.6815 80.9298 65.7715 85.1113C61.6671 89.8477 57.738 94.7331 53.9922 99.7578C50.458 104.167 47.0707 108.691 43.8359 113.324C40.392 118.616 37.1449 124.034 34.1016 129.566C32.1212 133.002 30.221 136.484 28.4023 140.008C34.3934 142.935 39.1414 147.049 43.043 151.658C44.9939 148.126 47.0356 144.643 49.166 141.215C52.018 135.891 55.0743 130.679 58.3281 125.588C61.2441 121.446 64.2932 117.398 67.4707 113.451C71.0202 108.598 74.7547 103.881 78.666 99.3105C82.1885 95.5746 85.8323 91.9536 89.5918 88.4531C93.7397 84.1845 98.0481 80.0729 102.508 76.127C106.62 72.8509 110.84 69.7118 115.162 66.7148C119.773 63.1364 124.516 59.7284 129.381 56.498C134.087 53.73 138.888 51.1243 143.775 48.6855C148.676 45.8795 153.676 43.2482 158.766 40.7969C164.133 38.5814 169.581 36.5625 175.098 34.7441C180.028 32.7794 185.024 30.9795 190.076 29.3477C196.52 27.6694 203.031 26.2613 209.594 25.127C213.935 24.0848 218.305 23.1645 222.699 22.3672C233.73 20.8029 244.858 20.0119 256 20C266.727 20.0224 277.441 20.7669 288.066 22.2285C288.544 22.287 289.022 22.3469 289.5 22.4082C299.936 23.8947 310.261 26.0701 320.406 28.9199C320.93 29.0666 321.454 29.215 321.977 29.3652C332.192 32.2933 342.198 35.8997 351.928 40.1602C352.168 40.2691 352.408 40.3785 352.648 40.4883C372.557 49.3069 391.149 60.8067 407.9 74.6641C408.029 74.7687 408.158 74.8736 408.287 74.9785C416.593 81.8854 424.414 89.3488 431.695 97.3164C431.849 97.4848 432.003 97.6534 432.156 97.8223C446.876 113.978 459.274 132.083 468.994 151.619C472.931 146.977 477.716 142.83 483.779 139.906L484.021 139.791C484.016 139.78 484.01 139.769 484.004 139.758C478.701 129.357 472.693 119.331 466.021 109.75C465.967 109.674 465.913 109.598 465.859 109.521C445.718 80.6534 419.839 56.2493 389.84 37.834C389.771 37.7903 389.702 37.7467 389.633 37.7031C379.834 31.7151 369.643 26.3931 359.129 21.7734C358.765 21.6118 358.401 21.451 358.037 21.291C347.666 16.7826 337.008 12.9663 326.133 9.8672C325.645 9.73033 325.157 9.59491 324.668 9.46095C313.786 6.41832 302.715 4.09945 291.527 2.51953C291.131 2.46978 290.734 2.42095 290.338 2.37305C278.958 0.812587 267.486 0.0197804 256 0Z" fill="#1C4266"/>
<path d="M19.5352 159.154C30.3057 164.347 35.3876 176.765 37.834 187.801C43.7226 214.364 37.3231 241.989 41.1289 268.928C46.5783 307.501 65.1285 343.669 93.8262 370.254C103.831 379.522 115.282 386.368 126.258 394.307C111.367 370.279 89.4919 343.484 87.4219 314.102C86.7129 304.038 87.0144 287.903 97.5332 282.756C111.191 302.895 126.385 321.092 143.865 338.057C159.756 353.479 178.838 365.12 194.832 380.516C227.433 411.898 255.339 465.746 238.768 512C174.115 507.638 113.521 478.921 69.2095 431.639C24.8977 384.358 0.164993 322.032 0 257.232C0.000710407 223.573 6.63907 190.245 19.5352 159.154Z" fill="#7795B2"/>
<path d="M396 170V250C396 252.626 395.421 255.227 394.295 257.654C393.169 260.08 391.519 262.285 389.439 264.142C387.359 265.999 384.89 267.472 382.172 268.478C379.454 269.483 376.542 270 373.6 270H138.4C132.459 270 126.762 267.893 122.561 264.142C118.36 260.391 116 255.304 116 250V170C116 164.696 118.36 159.609 122.561 155.858C126.762 152.107 132.459 150 138.4 150H373.6C379.541 150 385.238 152.107 389.439 155.858C393.64 159.609 396 164.696 396 170Z" fill="#C0A343"/>
<path d="M216 70H296C301.304 70 306.391 72.36 310.142 76.5608C313.893 80.7616 316 86.4592 316 92.4V327.6C316 333.541 313.893 339.238 310.142 343.439C306.391 347.64 301.304 350 296 350H216C210.696 350 205.609 347.64 201.858 343.439C198.107 339.238 196 333.541 196 327.6V92.4C196 86.4592 198.107 80.7616 201.858 76.5608C205.609 72.36 210.696 70 216 70Z" fill="#E7CD75"/>
<path d="M285 251C291.627 251 297 245.627 297 239C297 232.373 291.627 227 285 227C278.373 227 273 232.373 273 239C273 245.627 278.373 251 285 251Z" fill="white"/>
<path d="M256 251C262.627 251 268 245.627 268 239C268 232.373 262.627 227 256 227C249.373 227 244 232.373 244 239C244 245.627 249.373 251 256 251Z" fill="white"/>
<path d="M227 251C233.627 251 239 245.627 239 239C239 232.373 233.627 227 227 227C220.373 227 215 232.373 215 239C215 245.627 220.373 251 227 251Z" fill="white"/>
<path d="M285 222C291.627 222 297 216.627 297 210C297 203.373 291.627 198 285 198C278.373 198 273 203.373 273 210C273 216.627 278.373 222 285 222Z" fill="white"/>
<path d="M256 222C262.627 222 268 216.627 268 210C268 203.373 262.627 198 256 198C249.373 198 244 203.373 244 210C244 216.627 249.373 222 256 222Z" fill="white"/>
<path d="M227 222C233.627 222 239 216.627 239 210C239 203.373 233.627 198 227 198C220.373 198 215 203.373 215 210C215 216.627 220.373 222 227 222Z" fill="white"/>
<path d="M285 193C291.627 193 297 187.627 297 181C297 174.373 291.627 169 285 169C278.373 169 273 174.373 273 181C273 187.627 278.373 193 285 193Z" fill="white"/>
<path d="M256 193C262.627 193 268 187.627 268 181C268 174.373 262.627 169 256 169C249.373 169 244 174.373 244 181C244 187.627 249.373 193 256 193Z" fill="white"/>
<path d="M227 193C233.627 193 239 187.627 239 181C239 174.373 233.627 169 227 169C220.373 169 215 174.373 215 181C215 187.627 220.373 193 227 193Z" fill="white"/>
</g>
<defs>
<clipPath id="clip0_112_32">
<rect width="512" height="512" fill="white"/>
</clipPath>
</defs>
</svg>
